<svg xmlns="http://www.w3.org/2000/svg"  viewBox="0 0 32 32" width="32px" height="32px" baseProfile="basic"><linearGradient id="y5XRZhLyf8_6CH2N7_68Ea" x1="16" x2="16" y1="14.084" y2="17.958" gradientUnits="userSpaceOnUse"><stop offset="0" stop-color="#6ed1ff"/><stop offset="1" stop-color="#24baff"/></linearGradient><path fill="url(#y5XRZhLyf8_6CH2N7_68Ea)" d="M27,14H5c-1.105,0-2,0.895-2,2c0,1.105,0.895,2,2,2h22c1.105,0,2-0.895,2-2	C29,14.895,28.105,14,27,14z"/><linearGradient id="y5XRZhLyf8_6CH2N7_68Eb" x1="16" x2="16" y1="14.013" y2="18.026" gradientUnits="userSpaceOnUse"><stop offset="0" stop-opacity=".02"/><stop offset="1" stop-opacity=".15"/></linearGradient><path fill="url(#y5XRZhLyf8_6CH2N7_68Eb)" d="M27,14H5c-1.105,0-2,0.895-2,2	c0,1.105,0.895,2,2,2h22c1.105,0,2-0.895,2-2C29,14.895,28.105,14,27,14z M27,17.75H5c-0.965,0-1.75-0.785-1.75-1.75	c0-0.965,0.785-1.75,1.75-1.75h22c0.965,0,1.75,0.785,1.75,1.75C28.75,16.965,27.965,17.75,27,17.75z"/><linearGradient id="y5XRZhLyf8_6CH2N7_68Ec" x1="16" x2="16" y1="6.084" y2="9.958" gradientUnits="userSpaceOnUse"><stop offset="0" stop-color="#6ed1ff"/><stop offset="1" stop-color="#24baff"/></linearGradient><path fill="url(#y5XRZhLyf8_6CH2N7_68Ec)" d="M27,6H5C3.895,6,3,6.895,3,8	c0,1.105,0.895,2,2,2h22c1.105,0,2-0.895,2-2C29,6.895,28.105,6,27,6z"/><linearGradient id="y5XRZhLyf8_6CH2N7_68Ed" x1="16" x2="16" y1="6.013" y2="10.026" gradientUnits="userSpaceOnUse"><stop offset="0" stop-opacity=".02"/><stop offset="1" stop-opacity=".15"/></linearGradient><path fill="url(#y5XRZhLyf8_6CH2N7_68Ed)" d="M27,6H5C3.895,6,3,6.895,3,8	c0,1.105,0.895,2,2,2h22c1.105,0,2-0.895,2-2C29,6.895,28.105,6,27,6z M27,9.75H5C4.035,9.75,3.25,8.965,3.25,8	c0-0.965,0.785-1.75,1.75-1.75h22c0.965,0,1.75,0.785,1.75,1.75C28.75,8.965,27.965,9.75,27,9.75z"/><linearGradient id="y5XRZhLyf8_6CH2N7_68Ee" x1="16" x2="16" y1="22.084" y2="25.958" gradientUnits="userSpaceOnUse"><stop offset="0" stop-color="#6ed1ff"/><stop offset="1" stop-color="#24baff"/></linearGradient><path fill="url(#y5XRZhLyf8_6CH2N7_68Ee)" d="M27,22H5c-1.105,0-2,0.895-2,2	c0,1.105,0.895,2,2,2h22c1.105,0,2-0.895,2-2C29,22.895,28.105,22,27,22z"/><linearGradient id="y5XRZhLyf8_6CH2N7_68Ef" x1="16" x2="16" y1="22.013" y2="26.026" gradientUnits="userSpaceOnUse"><stop offset="0" stop-opacity=".02"/><stop offset="1" stop-opacity=".15"/></linearGradient><path fill="url(#y5XRZhLyf8_6CH2N7_68Ef)" d="M27,22H5c-1.105,0-2,0.895-2,2	c0,1.105,0.895,2,2,2h22c1.105,0,2-0.895,2-2C29,22.895,28.105,22,27,22z M27,25.75H5c-0.965,0-1.75-0.785-1.75-1.75	c0-0.965,0.785-1.75,1.75-1.75h22c0.965,0,1.75,0.785,1.75,1.75C28.75,24.965,27.965,25.75,27,25.75z"/></svg>